<?xml version="1.0" encoding="utf-8"?>
<!-- Generator: Adobe Illustrator 25.1.0, SVG Export Plug-In . SVG Version: 6.00 Build 0)  -->
<svg version="1.1" id="Calque_1" xmlns="http://www.w3.org/2000/svg" xmlns:xlink="http://www.w3.org/1999/xlink" x="0px" y="0px"
	 viewBox="0 0 223.1 58" style="enable-background:new 0 0 223.1 58;" xml:space="preserve">
<style type="text/css">
	.st0{fill:#28C5E4;}
	.st1{fill:#263553;}
</style>
<g transform="translate(-57.028 -22)">
	<g transform="translate(57 22)">
		<path class="st0" d="M57.7,57.7c-0.5-0.4-0.6-1.2-0.2-1.8c0.8-1,1.5-2,2.2-3.1c0.4-0.6,1.2-0.7,1.7-0.4c0.6,0.4,0.7,1.1,0.4,1.7
			c-0.7,1.1-1.5,2.2-2.4,3.3C59,58.1,58.2,58.2,57.7,57.7C57.7,57.7,57.7,57.7,57.7,57.7z M29.6,53.4L29.6,53.4
			c-3.8,0-7.5-1.1-10.6-3.1c-2.2-1.4-4.2-3.3-5.6-5.5c-0.4-0.6-0.3-1.3,0.3-1.7s1.3-0.3,1.7,0.3c0,0,0,0,0,0c0.2,0.3,0.5,0.7,0.7,1
			l0,0c0.2,0.2,0.4,0.5,0.6,0.7c3.3,3.7,8,5.8,12.9,5.8h0.3c0.6,0,1.1,0,1.7-0.1h0h0l0,0c0.8-0.1,1.6-0.3,2.4-0.5
			c0.7-0.2,1.4,0.2,1.5,0.9c0.2,0.6-0.2,1.3-0.9,1.5l-0.2,0.1h0c-0.6,0.1-1.2,0.3-1.8,0.4l0,0h0h0h0h0l0,0c-0.9,0.1-1.9,0.2-2.8,0.2
			L29.6,53.4L29.6,53.4z M55.4,53.1c-0.6-0.4-0.7-1.2-0.3-1.7c0.4-0.6,0.9-1.3,1.3-2c0.3-0.6,1.1-0.8,1.7-0.5
			c0.6,0.3,0.8,1.1,0.5,1.7c0,0,0,0,0,0c-0.4,0.7-0.9,1.5-1.4,2.1C56.8,53.4,56,53.5,55.4,53.1C55.4,53.1,55.4,53.1,55.4,53.1z
			 M20.6,45.7c-2.6-1.9-4.4-4.6-5.4-7.6c-0.2-0.7,0.2-1.4,0.8-1.6c0.7-0.2,1.4,0.2,1.6,0.8c2.1,6.7,9.1,10.4,15.8,8.3
			c6.7-2.1,10.4-9.1,8.3-15.8s-9.1-10.4-15.8-8.3c-3.8,1.2-6.8,4.1-8.1,7.8c-0.2,0.7-0.9,1-1.6,0.8c-0.7-0.2-1-0.9-0.8-1.6
			c0,0,0,0,0,0c2.8-7.9,11.4-12,19.3-9.2s12,11.4,9.2,19.3c-2.8,7.9-11.4,12-19.3,9.2C23.1,47.4,21.8,46.6,20.6,45.7z M47.6,48.2
			c-0.6-0.4-0.7-1.2-0.3-1.8c1.2-1.7,2.2-3.5,2.9-5.4c0.2-0.7,0.9-1,1.6-0.8c0.7,0.2,1,0.9,0.8,1.6c0,0,0,0,0,0
			c-0.8,2.2-1.9,4.2-3.2,6.1C48.9,48.4,48.2,48.6,47.6,48.2C47.6,48.2,47.6,48.2,47.6,48.2L47.6,48.2z M42.3,47.1
			c-0.5-0.5-0.5-1.3-0.1-1.8c3.9-4.2,5.5-10.2,4.1-15.8c-0.2-0.7,0.2-1.4,0.9-1.5c0.7-0.2,1.4,0.2,1.5,0.9c0,0,0,0,0,0.1
			c1.6,6.4-0.2,13.2-4.7,18.1C43.6,47.5,42.8,47.6,42.3,47.1C42.3,47.1,42.3,47.1,42.3,47.1L42.3,47.1z M19.1,33.6
			c0-5.8,4.7-10.5,10.5-10.5s10.5,4.7,10.5,10.5c0,5.8-4.7,10.5-10.5,10.5C23.8,44.1,19.1,39.4,19.1,33.6z M29.6,41.6
			c4.4,0,8-3.6,8-8s-3.6-8-8-8s-8,3.6-8,8c0,0,0,0,0,0C21.6,38,25.2,41.6,29.6,41.6z M12.3,26.9c-0.6-0.3-0.9-1-0.6-1.7
			c4.6-9.9,16.3-14.1,26.2-9.5c4.2,2,7.6,5.3,9.5,9.5c0.3,0.6,0,1.4-0.6,1.7s-1.4,0-1.7-0.6c0,0,0,0,0,0c-4-8.6-14.3-12.3-22.9-8.3
			c-3.7,1.7-6.6,4.7-8.3,8.3C13.7,27,13,27.2,12.3,26.9C12.3,26.9,12.3,26.9,12.3,26.9L12.3,26.9z M48.8,23.2
			c-5.7-10.6-19-14.6-29.6-8.8c-3.3,1.8-6,4.3-8,7.5c-0.4,0.6-1.2,0.8-1.7,0.4c-0.6-0.4-0.8-1.2-0.4-1.7
			c7.2-11.3,22.3-14.7,33.6-7.4c3.5,2.2,6.3,5.3,8.3,8.9c0.3,0.6,0.1,1.4-0.5,1.7C49.9,24,49.1,23.8,48.8,23.2
			C48.8,23.2,48.8,23.2,48.8,23.2L48.8,23.2z M5,20.7c-0.6-0.4-0.8-1.1-0.4-1.7c0,0,0,0,0,0c1.2-2,2.6-3.9,4.2-5.6
			c0.5-0.5,1.3-0.5,1.8,0s0.5,1.3,0,1.8c-1.5,1.5-2.8,3.2-3.9,5.1C6.4,20.8,5.6,21,5,20.7C5,20.7,5,20.7,5,20.7L5,20.7z M0.7,19.1
			c-0.6-0.3-0.8-1.1-0.5-1.7C1,16,1.8,14.6,2.8,13.3c0.4-0.6,1.2-0.7,1.8-0.2s0.7,1.2,0.2,1.8c-0.9,1.2-1.7,2.4-2.4,3.8
			C2,19.2,1.3,19.4,0.7,19.1L0.7,19.1z M51.3,18.4c-5.8-8.2-15.7-12.5-25.7-11c-0.7,0.1-1.3-0.4-1.4-1.1c-0.1-0.7,0.4-1.3,1-1.4
			c3.8-0.6,7.7-0.4,11.5,0.5c2.2,0.6,4.4,1.4,6.5,2.5c4,2.1,7.5,5.2,10.1,9c0.4,0.6,0.3,1.3-0.3,1.7C52.4,19.1,51.7,19,51.3,18.4
			L51.3,18.4z M53.5,13.8c-0.7-0.9-1.5-1.7-2.3-2.5c-0.5-0.5-0.5-1.3,0-1.8c0.5-0.5,1.2-0.5,1.7,0c0.9,0.8,1.7,1.7,2.5,2.7
			c0.5,0.5,0.4,1.3-0.1,1.8C54.8,14.4,54,14.3,53.5,13.8C53.5,13.8,53.5,13.8,53.5,13.8L53.5,13.8z M13.5,11
			c-0.4-0.6-0.2-1.4,0.4-1.7c0.7-0.4,1.4-0.8,2.1-1.2c0.6-0.3,1.4-0.1,1.7,0.5c0.3,0.6,0.1,1.3-0.5,1.7c-0.6,0.3-1.3,0.7-1.9,1.1
			C14.7,11.7,13.9,11.6,13.5,11C13.5,11,13.5,11,13.5,11z M34.5,2.9c-1.6-0.3-3.3-0.4-4.9-0.4c-0.6,0-1.2,0-1.8,0
			c-0.7,0-1.3-0.5-1.3-1.2c0,0,0,0,0,0c0,0,0,0,0-0.1c0-0.7,0.5-1.2,1.2-1.2C28.3,0,29,0,29.6,0c1.8,0,3.6,0.1,5.3,0.4
			c0.7,0.1,1.1,0.8,1,1.4C35.9,2.5,35.2,3,34.5,2.9L34.5,2.9z"/>
		<path class="st1" d="M23.7,33.6c0-3.2,2.6-5.9,5.9-5.9c3.2,0,5.9,2.6,5.9,5.9c0,3.2-2.6,5.9-5.9,5.9
			C26.4,39.5,23.7,36.9,23.7,33.6z M29.6,37c1.9,0,3.4-1.5,3.4-3.4c0-1.9-1.5-3.4-3.4-3.4c-1.9,0-3.4,1.5-3.4,3.4c0,0,0,0,0,0
			C26.2,35.5,27.7,37,29.6,37z"/>
	</g>
	<g>
		<g>
			<path class="st1" d="M142.9,48.9l-2.3-0.6c-2-0.5-4.2-1.3-4.2-3.4c0-1.9,1.7-3.2,4.5-3.2c2.7,0,4.4,1.2,4.7,3.3h4.3
				c-0.1-4.2-3.6-7.1-8.9-7.1c-5.2,0-9.1,2.9-9.1,7.3c0,3.6,2.5,5.6,6.6,6.6l2.8,0.7c2.7,0.7,4.4,1.5,4.4,3.4c0,2.1-2,3.5-4.9,3.5
				c-2.8,0-5-1.3-5.2-3.9h-4.4c0.2,4.9,3.8,7.7,9.6,7.7c5.9,0,9.4-3,9.4-7.3C150.2,51.7,146.7,49.8,142.9,48.9z M152.6,62.9h4.4
				V44.4h-4.4V62.9z M154.8,37c-1.4,0-2.5,1.1-2.5,2.4c0,1.3,1.1,2.4,2.5,2.4c1.4,0,2.5-1.1,2.5-2.4C157.4,38.1,156.2,37,154.8,37z
				 M170,52.4l-3.2-0.7c-1.9-0.4-2.6-1.1-2.6-2.1c0-1.3,1.4-2.1,3.2-2.1c2,0,3.1,1.1,3.4,2.3l4-0.4c-0.6-3.1-3.1-5.1-7.5-5.1
				c-4.5,0-7.5,2.2-7.5,5.6c0,2.7,1.7,4.5,5.2,5.2l3.2,0.7c1.7,0.4,2.5,1.1,2.5,2.1c0,1.3-1.4,2.2-3.5,2.2c-2,0-3.3-0.9-3.7-2.5
				l-4.3,0.4c0.5,3.4,3.4,5.4,8,5.4c4.6,0,7.9-2.4,7.9-5.9C175.2,54.7,173.5,53.1,170,52.4z M177.7,62.9h4.5V52.4h10.3v-3.8h-10.3
				V42h11.4v-3.8h-15.8V62.9z M200.2,47.5H200v-3.1h-4.2v18.5h4.4V52c0-2.4,1.8-4,4.2-4c0.7,0,1.7,0.1,2,0.3v-4
				c-0.4-0.1-1.1-0.1-1.6-0.1C202.6,44.1,200.9,45.3,200.2,47.5z M215.1,44.1c-3.9,0-6.9,1.7-7.9,5.1l4.1,0.6
				c0.4-1.3,1.7-2.4,3.8-2.4c2,0,3.1,1,3.1,2.9v0.1c0,1.3-1.3,1.3-4.6,1.7c-3.6,0.4-7,1.5-7,5.6c0,3.6,2.7,5.6,6.2,5.6
				c2.9,0,4.6-1.4,5.4-2.9h0.1v2.5h4.2V50.5C222.7,45.6,218.7,44.1,215.1,44.1z M218.3,56.3c0,2.1-1.7,3.8-4.3,3.8
				c-1.8,0-3.1-0.8-3.1-2.4c0-1.7,1.5-2.4,3.4-2.7c1.1-0.2,3.4-0.4,4-0.9V56.3z M235.7,44.1c-2.8,0-4.7,1.3-5.5,3.4h-0.2v-3.2h-4.2
				v18.5h4.4V52.1c0-2.7,1.6-4.2,3.9-4.2c2.3,0,3.6,1.5,3.6,4v11.1h4.4V51.1C242,46.7,239.5,44.1,235.7,44.1z M253.2,47.7
				c2.1,0,3.4,1.4,3.7,3.1h4.2c-0.3-4-3.4-6.7-8-6.7c-5.4,0-8.9,3.9-8.9,9.6c0,5.6,3.3,9.6,8.9,9.6c4.7,0,7.6-2.8,7.9-6.7H257
				c-0.4,2-1.8,3.1-3.7,3.1c-2.7,0-4.5-2.3-4.5-6.1C248.7,49.9,250.5,47.7,253.2,47.7z M279.8,53.5c0-6.5-3.9-9.4-8.5-9.4
				c-5.3,0-8.8,3.9-8.8,9.6c0,5.8,3.4,9.5,9,9.5c4.3,0,7.3-2.1,8.1-5.3l-4.1-0.5c-0.6,1.6-2,2.4-3.9,2.4c-2.8,0-4.7-1.9-4.7-5h12.9
				V53.5z M266.9,51.9c0.1-2.4,1.9-4.4,4.5-4.4c2.5,0,4.2,1.8,4.2,4.4H266.9z"/>
		</g>
	</g>
</g>
</svg>
